<?xml version="1.0" encoding="UTF-8" standalone="no"?>
<!DOCTYPE svg PUBLIC "-//W3C//DTD SVG 1.1//EN" "http://www.w3.org/Graphics/SVG/1.1/DTD/svg11.dtd">
<svg width="100%" height="100%" viewBox="0 0 120 120" version="1.1" xmlns="http://www.w3.org/2000/svg" xmlns:xlink="http://www.w3.org/1999/xlink" xml:space="preserve" xmlns:serif="http://www.serif.com/" style="fill-rule:evenodd;clip-rule:evenodd;stroke-linejoin:round;stroke-miterlimit:2;">
    <g transform="matrix(2,0,0,2,-562,-286)">
        <g id="Help-help_welcome" serif:id="Help/help_welcome" transform="matrix(0.5,0,0,0.5,281,78.5)">
            <rect x="0" y="129" width="120" height="120" style="fill:none;"/>
            <clipPath id="_clip1">
                <rect x="0" y="129" width="120" height="120"/>
            </clipPath>
            <g clip-path="url(#_clip1)">
                <g transform="matrix(1.17647,0,0,1.10092,-21.1765,-25.1284)">
                    <ellipse cx="69" cy="194.5" rx="51" ry="54.5" style="fill:rgb(0,103,221);"/>
                </g>
                <g transform="matrix(0.999998,0,0,0.999998,-158,129)">
                    <path d="M216.005,70.263C215.17,74.909 211.456,86.933 194.991,96.26C194.152,96.735 193.772,97.74 194.085,98.651C194.398,99.562 195.317,100.12 196.27,99.978C210.614,97.852 222.278,93.771 230.393,85.467C238.518,77.152 243.171,64.559 243.171,45.171C243.171,31.279 231.892,20 218,20C204.108,20 192.829,31.279 192.829,45.171C192.829,58.392 203.045,69.246 216.005,70.263ZM216,65.838C214.834,65.241 213.771,64.147 212.812,62.742C212.035,61.602 211.341,60.26 210.747,58.756L216,58.756L216,65.838ZM225.253,58.756C224.659,60.26 223.965,61.602 223.188,62.742C222.229,64.147 221.166,65.241 220,65.838L220,58.756L225.253,58.756ZM206.505,58.756L201.768,58.756C203.76,61.133 206.264,63.067 209.109,64.387C208.107,62.791 207.225,60.891 206.505,58.756ZM234.232,58.756L229.495,58.756C228.775,60.89 227.893,62.791 226.891,64.387C229.736,63.067 232.24,61.133 234.232,58.756ZM204.456,47.171L196.923,47.171C197.177,49.879 197.942,52.44 199.122,54.756L205.408,54.756C204.897,52.394 204.567,49.843 204.456,47.171ZM227.541,47.171C227.422,49.871 227.063,52.43 226.502,54.756L220,54.756L220,47.171L227.541,47.171ZM239.077,47.171L231.544,47.171C231.433,49.844 231.103,52.395 230.592,54.756L236.878,54.756C238.058,52.44 238.823,49.879 239.077,47.171ZM209.498,54.756C208.937,52.43 208.578,49.87 208.459,47.171L216,47.171L216,54.756L209.498,54.756ZM205.408,35.585L199.122,35.585C197.942,37.901 197.177,40.462 196.923,43.171L204.456,43.171C204.567,40.498 204.897,37.947 205.408,35.585ZM226.502,35.585C227.063,37.911 227.422,40.471 227.541,43.171L220,43.171L220,35.585L226.502,35.585ZM236.878,35.585L230.592,35.585C231.103,37.948 231.433,40.498 231.544,43.171L239.077,43.171C238.823,40.462 238.058,37.902 236.878,35.585ZM208.459,43.171C208.578,40.471 208.937,37.911 209.498,35.585L216,35.585L216,43.171L208.459,43.171ZM209.109,25.955C206.264,27.275 203.76,29.208 201.768,31.585L206.505,31.585C207.225,29.451 208.107,27.551 209.109,25.955ZM220,24.503C221.166,25.1 222.229,26.194 223.188,27.6C223.965,28.739 224.659,30.081 225.253,31.585L220,31.585L220,24.503ZM226.891,25.955C227.893,27.551 228.775,29.451 229.495,31.585L234.232,31.585C232.24,29.208 229.736,27.274 226.891,25.955ZM216,24.503L216,31.585L210.747,31.585C211.341,30.081 212.035,28.739 212.812,27.6C213.771,26.194 214.834,25.1 216,24.503Z" style="fill:white;"/>
                </g>
            </g>
        </g>
    </g>
</svg>
