<?xml version="1.0" encoding="UTF-8" standalone="no"?>
<!DOCTYPE svg PUBLIC "-//W3C//DTD SVG 1.1//EN" "http://www.w3.org/Graphics/SVG/1.1/DTD/svg11.dtd">
<svg width="100%" height="100%" viewBox="0 0 120 120" version="1.1" xmlns="http://www.w3.org/2000/svg" xmlns:xlink="http://www.w3.org/1999/xlink" xml:space="preserve" xmlns:serif="http://www.serif.com/" style="fill-rule:evenodd;clip-rule:evenodd;stroke-linejoin:round;stroke-miterlimit:2;">
    <g transform="matrix(0.585753,0,0,0.585756,-203.842,-0.0802485)">
        <g id="Help-help_welcome" serif:id="Help/help_welcome">
            <rect x="348" y="0.137" width="204.863" height="204.863" style="fill:none;"/>
            <g>
                <g transform="matrix(1.78142,0,0,1.87948,-336.064,-63.7651)">
                    <ellipse cx="441.5" cy="88.5" rx="57.5" ry="54.5" style="fill:rgb(9,156,255);"/>
                </g>
                <g id="path4281" transform="matrix(0.931195,0,0,0.93885,33.2561,8.75384)">
                    <path d="M444.684,171.862C441.197,171.873 442.64,171.888 437.491,171.911C417.524,171.999 431.991,162.129 439.897,156.823C411.104,154.63 393,124.739 393,88.196C393,50.226 417.624,28.089 448,28.089C478.376,28.089 503,50.226 503,88.196C503,124.739 484.896,154.63 456.103,156.823C464.009,162.129 478.476,171.999 458.509,171.911C451.644,171.881 452.219,171.863 448,171.854L444.684,171.862ZM457.899,91.661L473.665,75.895C476.397,73.163 476.397,68.727 473.665,65.995C470.934,63.263 466.498,63.263 463.766,65.995L448,81.761L432.234,65.995C429.502,63.263 425.066,63.263 422.335,65.995C419.603,68.727 419.603,73.163 422.335,75.895L438.101,91.661L422.335,107.426C419.603,110.158 419.603,114.594 422.335,117.326C425.066,120.058 429.502,120.058 432.234,117.326L448,101.56L463.766,117.326C466.498,120.058 470.934,120.058 473.665,117.326C476.397,114.594 476.397,110.158 473.665,107.426L457.899,91.661Z" style="fill:white;fill-rule:nonzero;"/>
                </g>
            </g>
        </g>
    </g>
</svg>
