<?xml version="1.0" standalone="no"?>
<!DOCTYPE svg PUBLIC "-//W3C//DTD SVG 20010904//EN"
 "http://www.w3.org/TR/2001/REC-SVG-20010904/DTD/svg10.dtd">
<svg version="1.0" xmlns="http://www.w3.org/2000/svg"
 width="1140.000000pt" height="1140.000000pt" viewBox="0 0 1140.000000 1140.000000"
 preserveAspectRatio="xMidYMid meet">
<metadata>
Created by potrace 1.14, written by Peter Selinger 2001-2017
</metadata>
<g transform="translate(0.000000,1140.000000) scale(0.100000,-0.100000)"
fill="#000000" stroke="none">
<path d="M0 5700 l0 -5700 5700 0 5700 0 0 5700 0 5700 -5700 0 -5700 0 0
-5700z m5581 3760 c140 -27 260 -129 317 -272 16 -40 17 -223 22 -2758 5
-2614 6 -2717 24 -2770 80 -238 240 -396 472 -466 91 -28 266 -26 364 4 115
36 195 86 285 176 93 93 145 182 175 302 19 73 20 113 20 668 0 356 4 617 10
656 44 273 341 430 593 313 139 -66 223 -192 240 -362 6 -61 6 -503 1 -1202
l-9 -1105 -38 -76 c-130 -263 -475 -316 -675 -104 l-52 54 -110 -49 c-425
-190 -896 -182 -1303 22 -462 233 -771 677 -826 1191 -7 58 -11 360 -11 752
l0 655 -97 -41 c-295 -123 -646 -148 -953 -66 -494 130 -893 501 -1053 978
-252 750 111 1564 837 1876 346 148 750 161 1104 34 45 -16 100 -39 122 -50
l40 -20 0 638 c0 391 4 660 10 693 42 224 264 372 491 329z m2219 -2612 c113
-34 213 -120 264 -227 29 -61 31 -74 31 -176 0 -98 -3 -116 -26 -165 -108
-227 -364 -315 -587 -201 -101 51 -192 183 -212 307 -48 291 246 547 530 462z"/>
<path d="M4325 7109 c-250 -29 -473 -212 -551 -452 -105 -325 43 -670 351
-817 181 -86 411 -80 598 17 101 52 229 181 280 283 54 110 71 185 70 315 0
90 -5 125 -26 190 -101 312 -396 501 -722 464z"/>
</g>
</svg>
