<?xml version="1.0" encoding="UTF-8" standalone="no"?>
<!DOCTYPE svg PUBLIC "-//W3C//DTD SVG 1.1//EN" "http://www.w3.org/Graphics/SVG/1.1/DTD/svg11.dtd">
<svg width="100%" height="100%" viewBox="0 0 60 60" version="1.1" xmlns="http://www.w3.org/2000/svg" xmlns:xlink="http://www.w3.org/1999/xlink" xml:space="preserve" xmlns:serif="http://www.serif.com/" style="fill-rule:evenodd;clip-rule:evenodd;stroke-linejoin:round;stroke-miterlimit:2;">
    <g transform="matrix(1,0,0,1,-133.055,-129)">
        <g id="Help-help_welcome" serif:id="Help/help_welcome" transform="matrix(0.5,0,0,0.5,133.055,64.5)">
            <rect x="0" y="129" width="120" height="120" style="fill:none;"/>
            <clipPath id="_clip1">
                <rect x="0" y="129" width="120" height="120"/>
            </clipPath>
            <g clip-path="url(#_clip1)">
                <g transform="matrix(1.17647,0,0,1.10092,-21.1765,-25.1284)">
                    <ellipse cx="69" cy="194.5" rx="51" ry="54.5" style="fill:rgb(204,136,127);"/>
                </g>
                <g transform="matrix(1,0,0,1,-133.055,-8.52651e-14)">
                    <path d="M139.754,216.558L154.428,201.883C161.533,194.778 173.068,194.778 180.173,201.883C187.277,208.987 187.277,220.523 180.173,227.627L165.498,242.302C154.486,236.593 145.463,227.57 139.754,216.558ZM177.256,224.781C182.666,219.37 182.666,210.584 177.256,205.173C171.845,199.762 163.059,199.762 157.648,205.173L149.519,213.302C153.907,221.734 160.443,228.269 169.127,232.91L177.256,224.781ZM193.055,177.569C199.364,177.569 204.486,182.691 204.486,189C204.486,195.309 199.364,200.431 193.055,200.431C186.746,200.431 181.624,195.309 181.624,189C181.624,182.691 186.746,177.569 193.055,177.569ZM220.613,135.698C231.625,141.407 240.648,150.43 246.357,161.442L232.238,175.561C225.134,182.666 213.598,182.666 206.494,175.561C199.39,168.457 199.39,156.921 206.494,149.817L220.613,135.698ZM209.411,152.663C204,158.074 204,166.86 209.411,172.271C214.822,177.682 223.607,177.682 229.018,172.271L237.147,164.142C237.147,164.142 235.625,160.504 229.018,152.663C222.411,144.823 217.54,144.534 217.54,144.534L209.411,152.663Z" style="fill:white;"/>
                </g>
            </g>
        </g>
    </g>
</svg>
