<?xml version="1.0" encoding="UTF-8"?>
<svg width="41px" height="40px" viewBox="0 0 41 40" version="1.1" xmlns="http://www.w3.org/2000/svg" xmlns:xlink="http://www.w3.org/1999/xlink">
    <title>Octicons-mark-github</title>
    <g id="Page-1" stroke="none" stroke-width="1" fill="none" fill-rule="evenodd">
        <g id="Octicons-mark-github" fill="#FFFFFF">
            <path d="M20.5,0 C9.17375,0 0,9.17375 0,20.5 C0,29.57125 5.868125,37.233125 14.016875,39.949375 C15.041875,40.12875 15.42625,39.51375 15.42625,38.975625 C15.42625,38.48875 15.400625,36.874375 15.400625,35.1575 C10.25,36.105625 8.9175,33.901875 8.5075,32.74875 C8.276875,32.159375 7.2775,30.34 6.40625,29.853125 C5.68875,29.46875 4.66375,28.520625 6.380625,28.495 C7.995,28.469375 9.148125,29.98125 9.5325,30.59625 C11.3775,33.696875 14.324375,32.825625 15.503125,32.2875 C15.6825,30.955 16.220625,30.058125 16.81,29.545625 C12.24875,29.033125 7.4825,27.265 7.4825,19.42375 C7.4825,17.194375 8.276875,15.349375 9.58375,13.914375 C9.37875,13.401875 8.66125,11.300625 9.78875,8.481875 C9.78875,8.481875 11.505625,7.94375 15.42625,10.583125 C17.06625,10.121875 18.80875,9.89125 20.55125,9.89125 C22.29375,9.89125 24.03625,10.121875 25.67625,10.583125 C29.596875,7.918125 31.31375,8.481875 31.31375,8.481875 C32.44125,11.300625 31.72375,13.401875 31.51875,13.914375 C32.825625,15.349375 33.62,17.16875 33.62,19.42375 C33.62,27.290625 28.828125,29.033125 24.266875,29.545625 C25.01,30.18625 25.650625,31.41625 25.650625,33.338125 C25.650625,36.08 25.625,38.28375 25.625,38.975625 C25.625,39.51375 26.009375,40.154375 27.034375,39.949375 C35.131875,37.233125 41,29.545625 41,20.5 C41,9.17375 31.82625,0 20.5,0 Z" id="Path"></path>
        </g>
    </g>
</svg>