<?xml version="1.0" encoding="UTF-8" standalone="no"?>
<!DOCTYPE svg PUBLIC "-//W3C//DTD SVG 1.1//EN" "http://www.w3.org/Graphics/SVG/1.1/DTD/svg11.dtd">
<svg width="100%" height="100%" viewBox="0 0 194 246" version="1.1" xmlns="http://www.w3.org/2000/svg" xmlns:xlink="http://www.w3.org/1999/xlink" xml:space="preserve" xmlns:serif="http://www.serif.com/" style="fill-rule:evenodd;clip-rule:evenodd;stroke-linejoin:round;stroke-miterlimit:2;">
    <g transform="matrix(1,0,0,1,-1609,-8.52651e-14)">
        <g id="logo_with_title_white" transform="matrix(0.312903,0,0,0.396774,1609,8.52651e-14)">
            <rect x="0" y="0" width="620" height="620" style="fill:none;"/>
            <clipPath id="_clip1">
                <rect x="0" y="0" width="620" height="620"/>
            </clipPath>
            <g clip-path="url(#_clip1)">
                <g transform="matrix(3.19588,0,0,2.52033,-4324.02,-6.80504e-13)">
                    <path d="M1441.66,31.63C1441.77,31.685 1441.88,31.741 1442,31.797L1442,31.798L1442,8C1442,3.585 1445.59,0 1450,0C1454.41,0 1458,3.585 1458,8L1458,107.2C1458,114.265 1463.74,120 1470.8,120C1477.87,120 1483.6,114.265 1483.6,107.2L1483.6,86.395C1483.6,81.983 1487.18,78.4 1491.6,78.4L1491.61,78.4C1496.02,78.4 1499.6,81.983 1499.6,86.395L1499.6,128C1499.6,132.415 1496.02,136 1491.6,136C1488.78,136 1486.3,134.537 1484.87,132.328C1480.71,134.666 1475.91,136 1470.8,136C1454.9,136 1442,123.095 1442,107.2L1442,83.402L1442,83.403C1441.88,83.459 1441.77,83.515 1441.66,83.57L1441.64,83.58L1441.55,83.621L1441.37,83.708L1441.31,83.732L1441.27,83.752L1441.18,83.793L1441.05,83.854L1440.97,83.89L1440.9,83.919L1440.83,83.953L1440.73,83.997L1440.62,84.045L1440.53,84.082L1440.47,84.106L1440.41,84.135L1440.26,84.198L1440.16,84.239L1440.12,84.254L1440.08,84.27L1439.87,84.357L1439.78,84.391L1439.77,84.396C1439.65,84.443 1439.53,84.488 1439.41,84.533L1439.4,84.538L1439.31,84.571L1439.1,84.651L1439.06,84.666L1439.02,84.68L1438.92,84.716L1438.77,84.77L1438.7,84.795L1438.63,84.816L1438.55,84.846L1438.43,84.886L1438.33,84.92L1438.25,84.948L1438.18,84.97L1438.1,84.997L1437.96,85.041L1437.86,85.073L1437.81,85.088L1437.76,85.104L1437.57,85.163L1437.47,85.194L1437.44,85.2C1437.32,85.237 1437.2,85.272 1437.08,85.307L1437.07,85.309L1437.02,85.323L1436.74,85.402L1436.71,85.41L1436.68,85.418L1436.57,85.445L1436.39,85.493L1436.33,85.508C1436.24,85.532 1436.15,85.554 1436.06,85.577L1436.05,85.579L1436.03,85.584L1435.88,85.621L1435.69,85.664C1435.59,85.688 1435.49,85.711 1435.38,85.734L1435.35,85.74L1435.33,85.745C1435.23,85.767 1435.12,85.789 1435.02,85.81L1435,85.814L1434.97,85.82C1434.87,85.842 1434.76,85.863 1434.65,85.884L1434.46,85.92L1434.32,85.945L1434.3,85.95L1434.28,85.952C1434.18,85.971 1434.07,85.989 1433.97,86.006L1433.94,86.011L1433.91,86.015C1433.81,86.033 1433.7,86.049 1433.6,86.065L1433.58,86.068L1433.55,86.072L1433.43,86.091L1433.23,86.12C1433.12,86.136 1433.01,86.15 1432.9,86.164L1432.87,86.168L1432.85,86.171C1432.74,86.184 1432.64,86.197 1432.53,86.209L1432.51,86.212L1432.47,86.215C1432.37,86.227 1432.26,86.239 1432.15,86.25L1432.14,86.251L1432.12,86.254L1431.97,86.268L1431.77,86.286C1431.66,86.296 1431.56,86.305 1431.45,86.313L1431.41,86.316L1431.39,86.318C1431.28,86.326 1431.18,86.333 1431.07,86.34L1431.05,86.342L1431.02,86.343C1430.91,86.35 1430.8,86.356 1430.69,86.362L1430.49,86.372L1430.34,86.378L1430.31,86.379L1430.3,86.379C1430.19,86.383 1430.08,86.387 1429.98,86.39L1429.94,86.391L1429.91,86.391C1429.81,86.394 1429.7,86.396 1429.59,86.397L1429.57,86.398L1429.54,86.398C1429.43,86.399 1429.31,86.4 1429.2,86.4C1413.31,86.4 1400.4,73.495 1400.4,57.6C1400.4,56.427 1400.47,55.27 1400.61,54.133C1402.32,39.87 1414.48,28.8 1429.2,28.8C1429.31,28.8 1429.43,28.801 1429.54,28.802L1429.57,28.802L1429.59,28.803C1429.7,28.804 1429.81,28.806 1429.91,28.809L1429.94,28.809L1429.98,28.81C1430.08,28.813 1430.19,28.817 1430.3,28.821L1430.31,28.821L1430.34,28.822L1430.49,28.828L1430.69,28.838C1430.8,28.843 1430.91,28.85 1431.02,28.857L1431.05,28.858L1431.07,28.86C1431.18,28.867 1431.28,28.874 1431.39,28.882L1431.41,28.884L1431.45,28.887C1431.56,28.895 1431.66,28.904 1431.77,28.914L1431.97,28.932L1432.12,28.946L1432.14,28.949L1432.15,28.95C1432.26,28.961 1432.37,28.972 1432.47,28.985L1432.51,28.988L1432.53,28.991C1432.64,29.003 1432.74,29.016 1432.85,29.029L1432.87,29.032L1432.9,29.036C1433.01,29.05 1433.12,29.064 1433.23,29.08L1433.43,29.109L1433.55,29.128L1433.58,29.132L1433.6,29.135C1433.7,29.151 1433.81,29.167 1433.91,29.185L1433.94,29.189L1433.97,29.194C1434.07,29.211 1434.18,29.229 1434.28,29.248L1434.3,29.25L1434.32,29.255L1434.46,29.28L1434.65,29.316C1434.76,29.337 1434.87,29.358 1434.97,29.38L1435,29.386L1435.02,29.39C1435.12,29.411 1435.23,29.433 1435.33,29.455L1435.35,29.46L1435.38,29.466C1435.49,29.489 1435.59,29.513 1435.69,29.536L1435.88,29.579L1436.03,29.616L1436.05,29.621L1436.06,29.623C1436.15,29.645 1436.24,29.668 1436.33,29.692L1436.39,29.707L1436.57,29.755L1436.68,29.782L1436.71,29.79L1436.74,29.798L1437.02,29.877L1437.07,29.891L1437.08,29.893C1437.2,29.927 1437.32,29.963 1437.44,30L1437.47,30.006L1437.57,30.037L1437.76,30.096L1437.81,30.112L1437.86,30.127L1437.96,30.159L1438.1,30.203L1438.18,30.23L1438.25,30.252L1438.33,30.28L1438.43,30.314L1438.55,30.354L1438.63,30.384L1438.7,30.405L1438.77,30.43L1438.92,30.484L1439.02,30.52L1439.06,30.534L1439.1,30.549L1439.31,30.629L1439.4,30.662L1439.41,30.667C1439.53,30.712 1439.65,30.757 1439.77,30.804L1439.78,30.809L1439.87,30.843L1440.08,30.93L1440.12,30.946L1440.16,30.961L1440.26,31.002L1440.41,31.065L1440.47,31.094L1440.53,31.118L1440.62,31.155L1440.73,31.203L1440.83,31.247L1440.9,31.281L1440.97,31.31L1441.05,31.346L1441.18,31.407L1441.27,31.448L1441.31,31.468L1441.37,31.492L1441.55,31.579L1441.64,31.62L1441.66,31.63ZM1432.65,45.273C1431.56,44.965 1430.4,44.8 1429.2,44.8C1423.9,44.8 1419.35,48.026 1417.41,52.62C1417.34,52.787 1417.27,52.957 1417.2,53.128L1417.18,53.201L1417.14,53.289C1417.08,53.482 1417.01,53.676 1416.95,53.873L1416.93,53.946C1416.91,53.997 1416.9,54.047 1416.89,54.098L1416.84,54.25L1416.83,54.309C1416.77,54.544 1416.71,54.781 1416.66,55.021C1416.49,55.853 1416.4,56.716 1416.4,57.6C1416.4,58.696 1416.54,59.759 1416.8,60.776L1416.8,60.797L1416.84,60.95C1416.86,61.001 1416.87,61.052 1416.89,61.102L1416.93,61.254L1416.93,61.266C1417.06,61.7 1417.21,62.124 1417.39,62.538C1417.46,62.71 1417.54,62.88 1417.62,63.049C1417.85,63.55 1418.12,64.034 1418.42,64.497C1418.45,64.543 1418.48,64.588 1418.51,64.634C1418.64,64.84 1418.79,65.042 1418.93,65.24C1418.98,65.306 1419.03,65.372 1419.08,65.437C1419.75,66.296 1420.52,67.067 1421.38,67.732C1421.5,67.82 1421.61,67.907 1421.73,67.991C1421.81,68.047 1421.88,68.102 1421.96,68.156C1422.11,68.258 1422.26,68.357 1422.41,68.453C1422.6,68.566 1422.78,68.675 1422.96,68.779C1423.14,68.877 1423.32,68.97 1423.49,69.059L1423.51,69.069L1423.65,69.137L1423.67,69.146C1423.76,69.188 1423.85,69.229 1423.93,69.269L1424.08,69.332C1425.65,70.019 1427.38,70.4 1429.2,70.4C1436.27,70.4 1442,64.665 1442,57.6C1442,51.97 1438.36,47.185 1433.3,45.473L1433.19,45.434C1433.01,45.377 1432.83,45.323 1432.65,45.273ZM1499.6,57.6C1499.6,53.185 1496.02,49.6 1491.6,49.6C1487.18,49.6 1483.6,53.185 1483.6,57.6C1483.6,62.015 1487.18,65.6 1491.6,65.6C1496.02,65.6 1499.6,62.015 1499.6,57.6Z" style="fill:white;"/>
                </g>
                <g transform="matrix(3.19588,0,0,2.52033,-5765.36,27.7236)">
                    <path d="M1830,215.126C1827.59,216.325 1824.87,217 1822,217C1812.07,217 1804,208.934 1804,199C1804,189.066 1812.07,181 1822,181C1831.93,181 1840,189.066 1840,199L1840,230C1840,232.76 1837.76,235 1835,235C1832.24,235 1830,232.76 1830,230L1830,215.126ZM1988.8,183.295C1989.69,181.915 1991.24,181 1993,181C1995.76,181 1998,183.24 1998,186L1998,212C1998,214.76 1995.76,217 1993,217C1991.24,217 1989.69,216.085 1988.8,214.705C1986.19,216.166 1983.19,217 1980,217C1970.07,217 1962,208.934 1962,199C1962,189.066 1970.07,181 1980,181C1983.19,181 1986.19,181.834 1988.8,183.295ZM1876,199L1876,186C1876,183.24 1878.24,181 1881,181C1883.76,181 1886,183.24 1886,186L1886,199C1886,208.934 1877.93,217 1868,217C1858.07,217 1850,208.934 1850,199L1850,186C1850,183.24 1852.24,181 1855,181C1857.76,181 1860,183.24 1860,186L1860,199C1860,203.415 1863.59,207 1868,207C1872.41,207 1876,203.415 1876,199ZM1920,182.874L1920,168C1920,165.24 1922.24,163 1925,163C1927.76,163 1930,165.24 1930,168L1930,199C1930,208.934 1921.93,217 1912,217C1902.07,217 1894,208.934 1894,199C1894,189.066 1902.07,181 1912,181C1914.87,181 1917.59,181.675 1920,182.874ZM1952,212C1952,214.76 1949.76,217 1947,217C1944.24,217 1942,214.76 1942,212L1942,186C1942,183.24 1944.24,181 1947,181C1949.76,181 1952,183.24 1952,186L1952,212ZM1980,191C1984.41,191 1988,194.585 1988,199C1988,203.415 1984.41,207 1980,207C1975.59,207 1972,203.415 1972,199C1972,194.585 1975.59,191 1980,191ZM1822,191C1826.41,191 1830,194.585 1830,199C1830,203.415 1826.41,207 1822,207C1817.59,207 1814,203.415 1814,199C1814,194.585 1817.59,191 1822,191ZM1912,207C1916.41,207 1920,203.415 1920,199C1920,194.585 1916.41,191 1912,191C1907.59,191 1904,194.585 1904,199C1904,203.415 1907.59,207 1912,207ZM1952,168C1952,165.24 1949.76,163 1947,163C1944.24,163 1942,165.24 1942,168C1942,170.76 1944.24,173 1947,173C1949.76,173 1952,170.76 1952,168Z" style="fill:white;"/>
                </g>
            </g>
        </g>
    </g>
</svg>
