<?xml version="1.0" encoding="UTF-8"?>
<svg width="120px" height="120px" viewBox="0 0 120 120" version="1.1" xmlns="http://www.w3.org/2000/svg" xmlns:xlink="http://www.w3.org/1999/xlink">
    <title>watchtoy_appicon</title>
    <defs>
        <circle id="path-1" cx="60" cy="60" r="60"></circle>
    </defs>
    <g id="watchtoy_appicon" stroke="none" stroke-width="1" fill="none" fill-rule="evenodd">
        <mask id="mask-2" fill="white">
            <use xlink:href="#path-1"></use>
        </mask>
        <use id="Oval" fill="#AA3BD4" xlink:href="#path-1"></use>
        <path d="M78.5469401,-29.1559502 L80.2685103,-28.6946569 C84.881702,-27.4585559 87.9874601,-23.1461468 87.6977425,-18.3790148 L84.6332236,32.0458375 C92.4289755,36.3351127 96.6855519,45.4727938 94.4314559,54.5134794 L88.4717173,78.4166852 C86.446871,86.5379002 79.7465393,92.2617608 71.9554854,93.4343241 L54.8927024,141.534574 C52.207391,148.322723 46.8536029,150.772218 38.8313379,148.88306 C33.3949894,148.228087 27.9068037,142.158301 28.4590096,136.710554 L35.7506745,85.4066005 C27.7114737,81.2093495 23.2777179,71.9211649 25.5685441,62.7331627 L31.5282827,38.8299569 C33.553129,30.708742 40.2534607,24.9848813 48.0445146,23.812318 L66.6010248,-23.143035 C68.4773736,-27.890944 73.6156712,-30.4772797 78.5469401,-29.1559502 Z M40.2317292,43.1771721 L40.0540478,43.8220359 L35.4399871,62.3280228 C33.7041333,69.290152 37.7598792,76.338564 44.553851,78.3915919 L45.1987149,78.5692732 L63.7047017,83.183334 C70.6668309,84.9191878 77.715243,80.8634419 79.7682708,74.06947 L79.9459522,73.4246062 L84.5600129,54.9186193 C86.2958667,47.9564901 82.2401208,40.9080781 75.446149,38.8550502 L74.8012851,38.6773689 L56.2952983,34.0633081 C49.3331691,32.3274544 42.284757,36.3832002 40.2317292,43.1771721 Z M69.1108757,64.4473991 C72.577545,65.3762903 74.6348206,68.9395961 73.7059293,72.4062654 C72.7770381,75.8729347 69.2137323,77.9302103 65.747063,77.001319 C62.2803937,76.0724278 60.2231182,72.509122 61.1520094,69.0424527 C62.0809006,65.5757834 65.6442065,63.5185079 69.1108757,64.4473991 Z M49.5816049,59.7749052 C53.0482741,60.7037965 55.1055497,64.2671023 54.1766585,67.7337716 C53.2477672,71.2004408 49.6844614,73.2577164 46.2177922,72.3288252 C42.7511229,71.3999339 40.6938473,67.8366281 41.6227385,64.3699589 C42.5516298,60.9032896 46.1149356,58.846014 49.5816049,59.7749052 Z M73.7833696,44.9180444 C77.2500388,45.8469357 79.3073144,49.4102415 78.3784232,52.8769107 C77.449532,56.34358 73.8862261,58.4008556 70.4195569,57.4719644 C66.9528876,56.5430731 64.895612,52.9797673 65.8245033,49.513098 C66.7533945,46.0464288 70.3167003,43.9891532 73.7833696,44.9180444 Z M54.2532483,40.2441614 C57.7199175,41.1730526 59.7771931,44.7363584 58.8483019,48.2030277 C57.9194107,51.669697 54.3561048,53.7269725 50.8894356,52.7980813 C47.4227663,51.8691901 45.3654907,48.3058842 46.2943819,44.839215 C47.2232732,41.3725457 50.786579,39.3152701 54.2532483,40.2441614 Z" id="Combined-Shape" fill="#FFFFFF" mask="url(#mask-2)"></path>
        <rect id="Rectangle" fill="#FFFFFF" mask="url(#mask-2)" transform="translate(92.000000, 65.300606) rotate(-345.000000) translate(-92.000000, -65.300606) " x="84.5" y="59.8006061" width="15" height="11" rx="3"></rect>
        <rect id="Rectangle" fill="#FFFFFF" mask="url(#mask-2)" transform="translate(100.703265, 67.062436) rotate(-345.000000) translate(-100.703265, -67.062436) " x="96.6135215" y="52.5624356" width="8.17948718" height="29" rx="3"></rect>
        <path d="M29.2439953,28.771223 L35.3344636,28.771223 C36.9913179,28.771223 38.3344636,30.1143688 38.3344636,31.771223 L38.3344636,43.3704655 C38.3344636,45.0273198 36.9913179,46.3704655 35.3344636,46.3704655 L29.2001302,46.3704655 C27.5432717,46.3704732 26.2001225,45.027324 26.2001225,43.3704655 C26.2001225,43.0011696 26.2683072,42.6350476 26.4012479,42.2905099 C27.3185275,39.9132291 27.7771674,38.3064687 27.7771674,37.4702289 C27.7771674,36.6495707 27.3354599,35.115811 26.4520451,32.8689499 C25.84579,31.3269991 26.6043164,29.585532 28.1462655,28.9792725 C28.4959195,28.8417965 28.8682858,28.771223 29.2439953,28.771223 Z" id="Rectangle" fill="#FFFFFF" mask="url(#mask-2)" transform="translate(31.521854, 37.570844) rotate(-345.000000) translate(-31.521854, -37.570844) "></path>
        <path d="M22.6889761,55.4917051 L28.7794445,55.4917051 C30.4362988,55.4917051 31.7794445,56.8348509 31.7794445,58.4917051 L31.7794445,70.0909476 C31.7794445,71.7478019 30.4362988,73.0909476 28.7794445,73.0909476 L22.6451111,73.0909476 C20.9882526,73.0909553 19.6451034,71.7478061 19.6451034,70.0909476 C19.6451034,69.7216517 19.713288,69.3555297 19.8462288,69.010992 C20.7635084,66.6337111 21.2221482,65.0269508 21.2221482,64.190711 C21.2221482,63.3700528 20.7804408,61.8362931 19.897026,59.589432 C19.2907708,58.0474812 20.0492972,56.3060141 21.5912464,55.6997546 C21.9409004,55.5622786 22.3132667,55.4917051 22.6889761,55.4917051 Z" id="Rectangle" fill="#FFFFFF" mask="url(#mask-2)" transform="translate(24.966835, 64.291326) rotate(-345.000000) translate(-24.966835, -64.291326) "></path>
    </g>
</svg>