<?xml version="1.0" encoding="UTF-8"?>
<svg width="120px" height="120px" viewBox="0 0 120 120" version="1.1" xmlns="http://www.w3.org/2000/svg" xmlns:xlink="http://www.w3.org/1999/xlink">
    <title>appicon</title>
    <g id="appicon" stroke="none" stroke-width="1" fill="none" fill-rule="evenodd">
        <circle id="Oval" fill="#40AD4D" cx="60" cy="60" r="60"></circle>
        <path d="M81.5227105,21.0714159 L84.242384,23.1111711 C86.4033196,24.7318727 86.8688373,27.7843523 85.2892277,29.9755049 L84.9597508,30.4323003 C85.9860562,33.7829512 89.9317986,36.497436 92.2964494,35.8135315 C95.9291902,34.76287 99.6293281,38.9416712 97.6460911,42.8340049 C95.7328445,46.588974 90.6096598,45.5976779 89.209412,40.814434 C88.4494032,38.2182454 84.7508159,35.4125262 81.8007951,34.8131003 L76.9556921,41.5340919 C78.2010275,44.6456062 81.8691767,47.0573486 84.1133021,46.4083025 C87.7460429,45.3576411 91.4461807,49.5364422 89.4629437,53.4287759 C87.5496972,57.183745 82.4265125,56.1924489 81.0262647,51.409205 C80.3057511,48.947932 76.9441402,46.2983398 74.0831042,45.5188576 L70.4133125,50.6106043 C71.079757,51.6594969 71.5304616,52.8075892 71.7643089,53.9908581 C71.7691073,54.0111979 71.7721012,54.0336662 71.7751517,54.0560997 C71.814588,54.2532079 71.8463516,54.4524809 71.8720305,54.6524071 C72.8836174,60.1100023 77.2800642,63.3224178 80.5771327,62.3688395 C84.7401033,61.1648249 88.9803082,65.9535581 86.7076006,70.4140113 C84.5150993,74.7170505 78.6441417,73.5810662 77.0395157,68.0996667 C76.2983514,65.5678509 73.1184775,62.8621469 70.1038878,61.6886959 C69.8247803,62.0793307 69.5136955,62.4533984 69.1708087,62.8084681 L63.0119274,69.1863007 C64.6221657,73.3205641 69.4943191,76.5413241 72.4679007,75.6813046 C77.2518889,74.2976793 82.1246329,79.8007792 79.5128907,84.9266275 C76.9933196,89.8715792 70.2465527,88.5661326 68.4025541,82.2670369 C66.940508,77.2726902 59.0067603,74.0356432 54.5391268,74.5421436 L54.5391268,74.5421436 L54.54801,74.5319226 C53.0052391,74.6797936 51.4332415,74.4673691 49.9688353,73.892261 L46.7650599,76.434633 C48.3189274,79.7580989 51.4560342,82.3992374 53.7025277,81.7495064 C57.8654983,80.5454918 62.1057031,85.334225 59.8329956,89.7946782 C57.6404943,94.0977174 51.7695366,92.9617331 50.1649106,87.4803336 C49.2210308,84.2560418 43.8672613,81.5373403 40.1566388,81.6794707 L35.1787706,85.6295815 C36.5884662,88.9837007 39.1084087,91.6903373 41.174861,91.0926779 C45.3378316,89.8886633 49.5780365,94.6773965 47.3053289,99.1378497 C45.1128276,103.440889 37.4427966,102.814952 37.6372439,96.8235051 C37.7273915,94.0458158 33.6580771,90.5535877 30.2269868,89.5476024 C28.2696832,90.925866 25.5850554,90.7096106 23.8730158,88.9975709 L23.2513153,88.3758705 C21.5853808,86.709936 21.3222221,84.1015706 22.6218178,82.1364429 L36.3684307,61.3500936 C34.0959334,57.5948135 34.5312931,52.6411706 37.7241813,49.3348381 L46.1660481,40.5930291 C49.034208,37.6229626 53.3084892,36.8302996 56.9261547,38.2510452 L75.1862308,21.3946828 C76.9437636,19.7722574 79.6091905,19.6362759 81.5227105,21.0714159 Z M48.8120346,44.596947 L48.5770694,44.8286165 L42.041332,51.5965708 C39.5825251,54.1427399 39.5766907,58.1542817 41.9727889,60.7071135 L42.2044584,60.9420787 L48.9724127,67.4778161 C51.5185818,69.936623 55.5301236,69.9424574 58.0829554,67.5463592 L58.3179206,67.3146896 L64.853658,60.5467354 C67.3124649,58.0005663 67.3182993,53.9890245 64.9222011,51.4361927 L64.6905315,51.2012275 L57.9225773,44.6654901 C55.3764082,42.2066832 51.3648664,42.2008488 48.8120346,44.596947 Z" id="Shape" fill="#FFFFFF" transform="translate(60.000000, 61.000000) rotate(-300.000000) translate(-60.000000, -61.000000) "></path>
    </g>
</svg>